<?xml version="1.0" encoding="UTF-8" standalone="no"?>
<svg
   xmlns:dc="http://purl.org/dc/elements/1.1/"
   xmlns:cc="http://creativecommons.org/ns#"
   xmlns:rdf="http://www.w3.org/1999/02/22-rdf-syntax-ns#"
   xmlns:svg="http://www.w3.org/2000/svg"
   xmlns="http://www.w3.org/2000/svg"
   xmlns:sodipodi="http://sodipodi.sourceforge.net/DTD/sodipodi-0.dtd"
   xmlns:inkscape="http://www.inkscape.org/namespaces/inkscape"
   height="50px"
   id="Layer_1"
   style="enable-background:new 0 0 512 512;"
   version="1.1"
   viewBox="0 0 512 512"
   width="50px"
   xml:space="preserve"
   sodipodi:docname="closeicon.svg"
   inkscape:version="0.92.5 (2060ec1f9f, 2020-04-08)"><metadata
     id="metadata9"><rdf:RDF><cc:Work
         rdf:about=""><dc:format>image/svg+xml</dc:format><dc:type
           rdf:resource="http://purl.org/dc/dcmitype/StillImage" /></cc:Work></rdf:RDF></metadata><defs
     id="defs7" /><sodipodi:namedview
     pagecolor="#ffffff"
     bordercolor="#666666"
     borderopacity="1"
     objecttolerance="10"
     gridtolerance="10"
     guidetolerance="10"
     inkscape:pageopacity="0"
     inkscape:pageshadow="2"
     inkscape:window-width="701"
     inkscape:window-height="480"
     id="namedview5"
     showgrid="false"
     inkscape:zoom="0.4609375"
     inkscape:cx="603.11864"
     inkscape:cy="256"
     inkscape:window-x="0"
     inkscape:window-y="0"
     inkscape:window-maximized="0"
     inkscape:current-layer="Layer_1" /><path
     d="m 325.30339,304.00656 -34.83842,-30.55946 34.91808,-30.16499 c 1.4339,-1.25301 1.4339,-3.29495 0,-4.54796 l -9.93108,-8.72464 c -0.69039,-0.6033 -1.61977,-0.92815 -2.60226,-0.92815 -0.98248,0 -1.91186,0.34805 -2.60226,0.92815 l -34.75875,30.07217 -34.81187,-30.04897 c -0.6904,-0.6033 -1.61978,-0.92815 -2.60226,-0.92815 -0.98248,0 -1.91186,0.34806 -2.60226,0.92815 l -9.90452,8.72465 c -1.4339,1.25301 -1.4339,3.29494 0,4.54795 l 34.91808,30.165 -34.81186,30.53625 c -0.6904,0.6033 -1.08871,1.41543 -1.08871,2.27397 0,0.85854 0.37175,1.67068 1.08871,2.27398 l 9.93107,8.72464 c 0.71695,0.6265 1.64633,0.95136 2.60226,0.95136 0.92938,0 1.88531,-0.30165 2.60226,-0.95136 l 34.6791,-30.44344 34.70565,30.42024 c 0.71694,0.6265 1.64632,0.95135 2.60225,0.95135 0.92938,0 1.88532,-0.30165 2.60227,-0.95135 l 9.93107,-8.72464 c 0.6904,-0.6033 1.0887,-1.41544 1.0887,-2.27398 -0.0265,-0.83534 -0.42486,-1.64747 -1.11525,-2.25077 z"
     id="path2"
     inkscape:connector-curvature="0"
     style="stroke-width:0.24822313" /></svg>